<?xml version="1.0" encoding="UTF-8"?><svg id="uuid-c1a39c20-9d4a-475f-8c01-fb3e404bf219" xmlns="http://www.w3.org/2000/svg" xmlns:xlink="http://www.w3.org/1999/xlink" viewBox="0 0 981.69 1072.26"><defs><linearGradient id="uuid-2057d085-dbeb-4ba3-8af3-0f0078cb6b0f" x1="832.69" y1="913.61" x2="149" y2="229.92" gradientUnits="userSpaceOnUse"><stop offset="0" stop-color="#ef3c57"/><stop offset="1" stop-color="#f47621"/></linearGradient><linearGradient id="uuid-c447a740-8de9-4b73-9807-9b4eed97302b" x1="0" y1="425.08" x2="981.69" y2="425.08" gradientUnits="userSpaceOnUse"><stop offset="0" stop-color="#fff"/><stop offset="1" stop-color="#c7c8ca"/></linearGradient><linearGradient id="uuid-120fbc13-6fd8-45ec-8433-b15cbf5f4ada" x2="490.84" xlink:href="#uuid-c447a740-8de9-4b73-9807-9b4eed97302b"/><linearGradient id="uuid-cd3b5668-ed93-4d30-98e4-dbb385ce0f11" x1="555.08" y1="606.26" x2="826.09" y2="335.25" xlink:href="#uuid-c447a740-8de9-4b73-9807-9b4eed97302b"/><linearGradient id="uuid-262c8165-cbe2-429b-9a24-3542a2cd758b" x1="805.75" y1="571.76" x2="175.94" y2="571.76" xlink:href="#uuid-2057d085-dbeb-4ba3-8af3-0f0078cb6b0f"/><linearGradient id="uuid-ede592d6-1bf4-478a-8b5f-99cf50412906" x1="705.49" y1="538.56" x2="276.2" y2="109.27" xlink:href="#uuid-2057d085-dbeb-4ba3-8af3-0f0078cb6b0f"/></defs><path d="M490.84,1072.26L57.4,822.01V321.52L490.84,71.27l433.44,250.25v500.5l-433.44,250.25ZM119.4,786.22l371.44,214.45,371.44-214.45V357.31L490.84,142.86,119.4,357.31v428.9Z" style="fill:url(#uuid-2057d085-dbeb-4ba3-8af3-0f0078cb6b0f);"/><g><polygon points="490.84 0 981.69 850.16 0 850.16 490.84 0" style="fill:url(#uuid-c447a740-8de9-4b73-9807-9b4eed97302b);"/><polygon points="490.84 0 490.84 542.02 0 850.16 490.84 0" style="fill:url(#uuid-120fbc13-6fd8-45ec-8433-b15cbf5f4ada);"/><polygon points="490.84 0 981.69 850.16 490.84 542.02 490.84 0" style="fill:url(#uuid-cd3b5668-ed93-4d30-98e4-dbb385ce0f11);"/></g><polygon points="165.56 383.96 165.56 759.57 490.84 947.37 816.13 759.57 816.13 383.96 490.84 196.16 165.56 383.96" style="fill:#fff;"/><polygon points="180.94 392.84 180.94 750.69 490.84 929.61 800.75 750.69 800.75 392.84 490.84 213.92 180.94 392.84" style="fill:none; stroke:url(#uuid-262c8165-cbe2-429b-9a24-3542a2cd758b); stroke-miterlimit:10; stroke-width:10px;"/><g><polygon points="205.03 406.74 205.03 736.77 490.84 901.78 776.65 736.77 776.65 406.74 490.84 241.73 205.03 406.74" style="fill:#f47621;"/><polygon points="490.84 901.78 776.65 736.77 776.65 406.74 490.84 571.76 490.84 901.78" style="fill:#d63251;"/><polygon points="490.84 571.76 205.03 406.74 205.03 736.77 490.84 901.78 490.84 571.76" style="fill:#ef3c57;"/></g><polygon points="877.78 366.26 490.84 142.86 103.9 366.26 72.9 312.57 490.84 71.27 908.78 312.57 877.78 366.26" style="fill:url(#uuid-ede592d6-1bf4-478a-8b5f-99cf50412906);"/></svg>